<svg xmlns="http://www.w3.org/2000/svg" xmlns:xlink="http://www.w3.org/1999/xlink" viewBox="0 0 1196 922" width="1196" height="922" data-forced-size="true">
    <style>
        .source {
            width: calc(100% - 96px);
            height: calc(100% - 97px);
        }
        .mask_preview { clip-path: polygon(3% 2%, 95% 2%, 98% 8%, 98% 96%, 94.58% 98.45%, 12% 98%, 3% 97%, 3% 7%); }
        .overlay { mix-blend-mode: overlay; }
    </style>
    <defs>
       <linearGradient id="linear-gradient" x1="-899.76" y1="-3712.58" x2="-899.76" y2="-3764.66" gradientTransform="translate(4887.04 20.22) rotate(-90)" gradientUnits="userSpaceOnUse">
            <stop offset="0" stop-color="#2b2b2b"/>
            <stop offset="0.03" stop-color="#858585"/>
            <stop offset="0.05" stop-color="#bfbfbf"/>
            <stop offset="0.15" stop-color="#8c8c8c"/>
            <stop offset="0.85" stop-color="#8c8c8c"/>
            <stop offset="0.95" stop-color="#bfbfbf"/>
            <stop offset="0.97" stop-color="#858585"/>
            <stop offset="1" stop-color="#2b2b2b"/>
        </linearGradient>
        <linearGradient id="linear-gradient-2" x1="-899.76" y1="-3780.96" x2="-899.76" y2="-3833.04" xlink:href="#linear-gradient"/>
        <linearGradient id="linear-gradient-3" x1="7217.21" y1="-1275.7" x2="7217.21" y2="-1336.56" gradientTransform="translate(8494.22 -482.22) rotate(180)" xlink:href="#linear-gradient"/>
        <clipPath id="clip-path" clipPathUnits="objectBoundingBox">
            <use xlink:href="#filterPath" fill="none"/>
        </clipPath>
        <path id="filterPath" d="M1,1H0V0H1Z"/>
    </defs>
    <svg viewBox="0 0 1 1" id="preview" preserveAspectRatio="none">
        <g class="mask_preview">
            <use xlink:href="#filterPath" fill="darkgrey"/>
        </g>
    </svg>
    <image xlink:href="" clip-path="url(#clip-path)" preserveAspectRatio="xMidYMin slice" class="source" x="48" y="49"/>
    <g>
        <path d="M1193,857.21V66.44a63.82,63.82,0,0,0-63.73-63.77H64.94A63.82,63.82,0,0,0,1.21,66.44V857.21A63.82,63.82,0,0,0,64.94,921H1129.23A63.82,63.82,0,0,0,1193,857.21ZM63,873.44A13.87,13.87,0,0,1,49.17,860h0v-.24c0-.07,0-.14,0-.21s0-.14,0-.21V63.61c0-.08,0-.14,0-.22A13.89,13.89,0,0,1,63,49.51H1133.59a13.88,13.88,0,0,1,13.88,13.88V859.56a13.87,13.87,0,0,1-13.88,13.88Z"/>
        <path d="M1193,857.21V66.44a63.82,63.82,0,0,0-63.73-63.77H64.94A63.82,63.82,0,0,0,1.21,66.44V857.21A63.82,63.82,0,0,0,64.94,921H1129.23A63.82,63.82,0,0,0,1193,857.21ZM63,873.44A13.87,13.87,0,0,1,49.17,860h0v-.24c0-.07,0-.14,0-.21s0-.14,0-.21V63.61c0-.08,0-.14,0-.22A13.89,13.89,0,0,1,63,49.51H1133.59a13.88,13.88,0,0,1,13.88,13.88V859.56a13.87,13.87,0,0,1-13.88,13.88Z" fill="#707070"/>
        <path d="M1191.68,857.21V66.44a62.55,62.55,0,0,0-62.45-62.5H64.94A62.55,62.55,0,0,0,2.48,66.44V857.21a62.55,62.55,0,0,0,62.46,62.5H1129.23A62.55,62.55,0,0,0,1191.68,857.21ZM63,873.44A13.87,13.87,0,0,1,49.17,860h0v-.24c0-.07,0-.14,0-.21s0-.14,0-.21V63.61c0-.08,0-.14,0-.22A13.89,13.89,0,0,1,63,49.51H1133.59a13.88,13.88,0,0,1,13.88,13.88V859.56a13.87,13.87,0,0,1-13.88,13.88Z" fill="#969696"/>
        <path d="M1190.41,857.21V66.44a61.27,61.27,0,0,0-61.18-61.22H64.94A61.27,61.27,0,0,0,3.76,66.44V857.21a61.27,61.27,0,0,0,61.18,61.22H1129.23A61.27,61.27,0,0,0,1190.41,857.21ZM63,873.44A13.87,13.87,0,0,1,49.17,860h0v-.24c0-.07,0-.14,0-.21s0-.14,0-.21V63.61c0-.08,0-.14,0-.22A13.89,13.89,0,0,1,63,49.51H1133.59a13.88,13.88,0,0,1,13.88,13.88V859.56a13.87,13.87,0,0,1-13.88,13.88Z" fill="#c1c1c1"/>
        <path d="M1189.13,857.21V66.44a60,60,0,0,0-59.9-59.95H64.94A60,60,0,0,0,5,66.44V857.21a60,60,0,0,0,59.91,59.95H1129.23A60,60,0,0,0,1189.13,857.21ZM63,873.44A13.87,13.87,0,0,1,49.17,860h0v-.24c0-.07,0-.14,0-.21s0-.14,0-.21V63.61c0-.08,0-.14,0-.22A13.89,13.89,0,0,1,63,49.51H1133.59a13.88,13.88,0,0,1,13.88,13.88V859.56a13.87,13.87,0,0,1-13.88,13.88Z" fill="#969696"/>
        <path d="M1187.86,857.21V66.44a58.72,58.72,0,0,0-58.63-58.67H64.94A58.72,58.72,0,0,0,6.31,66.44V857.21a58.72,58.72,0,0,0,58.63,58.67H1129.23A58.72,58.72,0,0,0,1187.86,857.21ZM63,873.44A13.87,13.87,0,0,1,49.17,860h0v-.24c0-.07,0-.14,0-.21s0-.14,0-.21V63.61c0-.08,0-.14,0-.22A13.89,13.89,0,0,1,63,49.51H1133.59a13.88,13.88,0,0,1,13.88,13.88V859.56a13.87,13.87,0,0,1-13.88,13.88Z" fill="#707070"/>
        <path d="M1039.83,921v1.74a1.27,1.27,0,0,0,1.27,1.27h49.53a1.27,1.27,0,0,0,1.28-1.27V921Z" fill="url(#linear-gradient)"/>
        <path d="M971.44,921v1.74a1.28,1.28,0,0,0,1.28,1.27h49.53a1.27,1.27,0,0,0,1.28-1.27V921Z" fill="url(#linear-gradient-2)"/>
        <path d="M1193,856.86h1.73a1.27,1.27,0,0,0,1.27-1.28V797.27a1.27,1.27,0,0,0-1.27-1.28H1193Z" fill="url(#linear-gradient-3)"/>
        <path d="M1186.58,857.21V66.44A57.38,57.38,0,0,0,1129.23,9H64.94A57.38,57.38,0,0,0,7.58,66.44V857.21a57.38,57.38,0,0,0,57.36,57.4H1129.23A57.38,57.38,0,0,0,1186.58,857.21ZM63,873.44A13.87,13.87,0,0,1,49.17,860h0v-.24c0-.07,0-.14,0-.21s0-.14,0-.21V63.61c0-.08,0-.14,0-.22A13.89,13.89,0,0,1,63,49.51H1133.59a13.88,13.88,0,0,1,13.88,13.88V859.56a13.87,13.87,0,0,1-13.88,13.88Z"/>
        <rect x="1116.25" y="914.61" width="9.14" height="6.38" fill="#fff" opacity="0.3"/>
        <rect x="1186.58" y="338.17" width="6.37" height="9.14" fill="#fff" opacity="0.3"/>
        <rect x="1116.66" y="2.67" width="8.68" height="6.38" fill="#fff" opacity="0.3"/>
        <rect x="70.27" y="2.67" width="8.71" height="6.38" fill="#fff" opacity="0.3"/>
        <rect x="1.21" y="575.13" width="6.37" height="9.35" fill="#fff" opacity="0.3"/>
        <rect x="69.69" y="914.61" width="9.35" height="6.38" fill="#fff" opacity="0.3"/>
        <g>
            <path d="M1170.4,468.32a6.85,6.85,0,1,1,6.84-6.85A6.84,6.84,0,0,1,1170.4,468.32Z" fill="#1a1a1c"/>
            <path d="M1170.4,465.5a4,4,0,1,1,4-4A4,4,0,0,1,1170.4,465.5Z" fill="#0d1010"/>
            <circle cx="1170.4" cy="461.47" r="3.54" fill="#1f538b"/>
        </g>
        <path class="overlay" d="M1039.59,921.9a1.57,1.57,0,0,0,1.57,1.58h49.3a1.57,1.57,0,0,0,1.57-1.58v-1.35h37.82a63.26,63.26,0,0,0,63.26-63.26v-1.36h.08a3.23,3.23,0,0,0,3.23-3.23V799.36a3.22,3.22,0,0,0-3.23-3.23h-.08V65.77a63.26,63.26,0,0,0-63.26-63.26H65.31A63.26,63.26,0,0,0,2.05,65.77V857.29a63.26,63.26,0,0,0,63.26,63.26H970.8v1.35a1.57,1.57,0,0,0,1.57,1.58h49.3a1.57,1.57,0,0,0,1.57-1.58v-1.35h16.35ZM1178,461.48a7.61,7.61,0,1,1-7.61-7.61A7.6,7.6,0,0,1,1178,461.48ZM54.65,879.42A14.08,14.08,0,0,1,40.59,865.8h0v-.25c0-.07,0-.14,0-.21s0-.14,0-.22V57.83c0-.07,0-.14,0-.22A14.08,14.08,0,0,1,54.65,43.53H1142a14.08,14.08,0,0,1,14.09,14.08V865.34A14.08,14.08,0,0,1,1142,879.42Z" fill="#F6F6F6"/>
    </g>
</svg>
