<svg xmlns="http://www.w3.org/2000/svg" xmlns:xlink="http://www.w3.org/1999/xlink" viewBox="0 0 922 1196" width="922" height="1196" data-forced-size="true">
    <style>
        .source {
            width: calc(100% - 94px);
            height: calc(100% - 92px);
        }
        .mask_preview { clip-path: polygon(4% 2%, 95% 2%, 98% 8%, 98% 96%, 94.58% 98.45%, 12% 98%, 4% 97%, 4% 7%); }
        .overlay { mix-blend-mode: overlay; }
    </style>
    <defs>
       <linearGradient id="linear-gradient" x1="-1077.29" y1="293.38" x2="-1077.29" y2="241.29" gradientTransform="translate(-156.1 397.89) rotate(180)" gradientUnits="userSpaceOnUse">
			<stop offset="0" stop-color="#2b2b2b"/>
			<stop offset="0.03" stop-color="#858585"/>
			<stop offset="0.05" stop-color="#bfbfbf"/>
			<stop offset="0.15" stop-color="#8c8c8c"/>
			<stop offset="0.85" stop-color="#8c8c8c"/>
			<stop offset="0.95" stop-color="#bfbfbf"/>
			<stop offset="0.97" stop-color="#858585"/>
			<stop offset="1" stop-color="#2b2b2b"/>
		</linearGradient>
		<linearGradient id="linear-gradient-2" x1="-1077.29" y1="225" x2="-1077.29" y2="172.91" xlink:href="#linear-gradient"/>
		<linearGradient id="linear-gradient-3" x1="5126.07" y1="816.65" x2="5126.07" y2="755.79" gradientTransform="translate(1611.35 -5124.11) rotate(90)" xlink:href="#linear-gradient"/>
        <clipPath id="clip-path" clipPathUnits="objectBoundingBox">
            <use xlink:href="#filterPath" fill="none"/>
        </clipPath>
        <path id="filterPath" d="M1,1H0V0H1Z"/>
    </defs>
    <svg viewBox="0 0 1 1" id="preview" preserveAspectRatio="none">
        <g class="mask_preview">
            <use xlink:href="#filterPath" fill="darkgrey"/>
        </g>
    </svg>
    <image xlink:href="" clip-path="url(#clip-path)" preserveAspectRatio="xMidYMin slice" class="source" x="45" y="46"/>
    <g>
        <path d="M855.22,3.86H64.44A63.82,63.82,0,0,0,.67,67.59V1131.87a63.83,63.83,0,0,0,63.77,63.74H855.22A63.83,63.83,0,0,0,919,1131.87V67.59A63.82,63.82,0,0,0,855.22,3.86Zm16.23,1129.92A13.87,13.87,0,0,1,858,1147.64h-.24l-.21,0-.21,0H61.61l-.21,0a13.88,13.88,0,0,1-13.88-13.89V63.23A13.88,13.88,0,0,1,61.4,49.34H857.57a13.89,13.89,0,0,1,13.88,13.89Z"/>
        <path d="M855.22,3.86H64.44A63.82,63.82,0,0,0,.67,67.59V1131.87a63.83,63.83,0,0,0,63.77,63.74H855.22A63.83,63.83,0,0,0,919,1131.87V67.59A63.82,63.82,0,0,0,855.22,3.86Zm16.23,1129.92A13.87,13.87,0,0,1,858,1147.64h-.24l-.21,0-.21,0H61.61l-.21,0a13.88,13.88,0,0,1-13.88-13.89V63.23A13.88,13.88,0,0,1,61.4,49.34H857.57a13.89,13.89,0,0,1,13.88,13.89Z" fill="#707070"/>
        <path d="M855.22,5.13H64.44A62.55,62.55,0,0,0,2,67.59V1131.87a62.55,62.55,0,0,0,62.49,62.46H855.22a62.55,62.55,0,0,0,62.5-62.46V67.59A62.55,62.55,0,0,0,855.22,5.13Zm16.23,1128.65A13.87,13.87,0,0,1,858,1147.64h-.24l-.21,0-.21,0H61.61l-.21,0a13.88,13.88,0,0,1-13.88-13.89V63.23A13.88,13.88,0,0,1,61.4,49.34H857.57a13.89,13.89,0,0,1,13.88,13.89Z" fill="#969696"/>
        <path d="M855.22,6.41H64.44A61.26,61.26,0,0,0,3.23,67.59V1131.87a61.27,61.27,0,0,0,61.21,61.19H855.22a61.27,61.27,0,0,0,61.22-61.19V67.59A61.26,61.26,0,0,0,855.22,6.41Zm16.23,1127.37A13.87,13.87,0,0,1,858,1147.64h-.24l-.21,0-.21,0H61.61l-.21,0a13.88,13.88,0,0,1-13.88-13.89V63.23A13.88,13.88,0,0,1,61.4,49.34H857.57a13.89,13.89,0,0,1,13.88,13.89Z" fill="#c1c1c1"/>
        <path d="M855.22,7.68H64.44A60,60,0,0,0,4.5,67.59V1131.87a60,60,0,0,0,59.94,59.91H855.22a60,60,0,0,0,59.94-59.91V67.59A60,60,0,0,0,855.22,7.68Zm16.23,1126.1A13.87,13.87,0,0,1,858,1147.64h-.24l-.21,0-.21,0H61.61l-.21,0a13.88,13.88,0,0,1-13.88-13.89V63.23A13.88,13.88,0,0,1,61.4,49.34H857.57a13.89,13.89,0,0,1,13.88,13.89Z" fill="#969696"/>
        <path d="M855.22,9H64.44A58.71,58.71,0,0,0,5.78,67.59V1131.87a58.72,58.72,0,0,0,58.66,58.64H855.22a58.72,58.72,0,0,0,58.67-58.64V67.59A58.72,58.72,0,0,0,855.22,9Zm16.23,1124.82A13.87,13.87,0,0,1,858,1147.64h-.24l-.21,0-.21,0H61.61l-.21,0a13.88,13.88,0,0,1-13.88-13.89V63.23A13.88,13.88,0,0,1,61.4,49.34H857.57a13.89,13.89,0,0,1,13.88,13.89Z" fill="#707070"/>
        <path d="M919,157h1.73a1.28,1.28,0,0,0,1.28-1.28V106.18a1.27,1.27,0,0,0-1.28-1.27H919Z" fill="url(#linear-gradient)"/>
        <path d="M919,225.37h1.73A1.27,1.27,0,0,0,922,224.1V174.56a1.27,1.27,0,0,0-1.28-1.27H919Z" fill="url(#linear-gradient-2)"/>
        <path d="M854.86,3.86V2.13A1.27,1.27,0,0,0,853.59.85H795.27A1.27,1.27,0,0,0,794,2.13V3.86Z" fill="url(#linear-gradient-3)"/>
        <path d="M855.22,10.23H64.44A57.38,57.38,0,0,0,7.05,67.59V1131.87a57.38,57.38,0,0,0,57.39,57.36H855.22a57.37,57.37,0,0,0,57.39-57.36V67.59A57.37,57.37,0,0,0,855.22,10.23Zm16.23,1123.55A13.87,13.87,0,0,1,858,1147.64h-.24l-.21,0-.21,0H61.61l-.21,0a13.88,13.88,0,0,1-13.88-13.89V63.23A13.88,13.88,0,0,1,61.4,49.34H857.57a13.89,13.89,0,0,1,13.88,13.89Z"/>
        <rect x="912.61" y="71.43" width="6.38" height="9.14" fill="#fff" opacity="0.3"/>
        <rect x="336.17" y="3.86" width="9.14" height="6.37" fill="#fff" opacity="0.3"/>
        <rect x="0.67" y="71.48" width="6.38" height="8.68" fill="#fff" opacity="0.3"/>
        <rect x="0.67" y="1117.83" width="6.38" height="8.71" fill="#fff" opacity="0.3"/>
        <rect x="573.14" y="1189.23" width="9.35" height="6.37" fill="#fff" opacity="0.3"/>
        <rect x="912.61" y="1117.78" width="6.38" height="9.35" fill="#fff" opacity="0.3"/>
        <g>
            <path d="M466.33,26.41a6.85,6.85,0,1,1-6.85-6.83A6.85,6.85,0,0,1,466.33,26.41Z" fill="#1a1a1c"/>
            <path d="M463.51,26.41a4,4,0,1,1-4-4A4,4,0,0,1,463.51,26.41Z" fill="#0d1010"/>
            <circle cx="459.48" cy="26.41" r="3.54" fill="#1f538b"/>
        </g>
        <path class="overlay" d="M919.91,157.23a1.57,1.57,0,0,0,1.57-1.58V106.36a1.57,1.57,0,0,0-1.57-1.58h-1.35V67A63.26,63.26,0,0,0,855.3,3.71h-1.37V3.62A3.23,3.23,0,0,0,850.71.39H797.36a3.23,3.23,0,0,0-3.23,3.23v.09H63.77A63.26,63.26,0,0,0,.51,67V1131.5a63.26,63.26,0,0,0,63.26,63.26H855.3a63.26,63.26,0,0,0,63.26-63.26V226h1.35a1.57,1.57,0,0,0,1.57-1.58V175.15a1.57,1.57,0,0,0-1.57-1.58h-1.35V157.23ZM459.48,18.8a7.61,7.61,0,1,1-7.6,7.61A7.61,7.61,0,0,1,459.48,18.8ZM877.43,1142.16a14.07,14.07,0,0,1-13.62,14.06v0H55.62a14.08,14.08,0,0,1-14.08-14.09V54.85A14.08,14.08,0,0,1,55.62,40.76H863.35a14.08,14.08,0,0,1,14.08,14.09Z" fill="#F6F6F6"/>
    </g>
</svg>
