<svg xmlns="http://www.w3.org/2000/svg" xmlns:xlink="http://www.w3.org/1999/xlink" viewBox="0 0 840 415" width="840" height="415" data-forced-size="true">
    <style>
        image { 
            width: calc(100% - 38px);
            height: calc(100% - 42px);
        }
        .mask_preview { clip-path: polygon(5.62% 4%, 96% 5%, 98.69% 15%, 98.46% 88.53%, 95.16% 96%, 4.39% 96.00%, 1.7% 85.18%, 2% 10%); }
        .overlay { mix-blend-mode: overlay; }
    </style>
    <defs>
        <linearGradient id="linear-gradient" x1="802.92" y1="126.71" x2="802.92" y2="95.43" gradientTransform="translate(801.41 -801.41) rotate(90)" gradientUnits="userSpaceOnUse">
            <stop offset="0" stop-color="#2b2b2b"/>
            <stop offset="0.03" stop-color="#858585"/>
            <stop offset="0.05" stop-color="#bfbfbf"/>
            <stop offset="0.15" stop-color="#8c8c8c"/>
            <stop offset="0.85" stop-color="#8c8c8c"/>
            <stop offset="0.95" stop-color="#bfbfbf"/>
            <stop offset="0.97" stop-color="#858585"/>
            <stop offset="1" stop-color="#2b2b2b"/>
        </linearGradient>
        <linearGradient id="linear-gradient-2" x1="802.92" y1="218.36" x2="802.92" y2="154.91" xlink:href="#linear-gradient"/>
        <linearGradient id="linear-gradient-3" x1="802.92" y1="298.51" x2="802.92" y2="235.05" xlink:href="#linear-gradient"/>
        <linearGradient id="linear-gradient-4" x1="-1456.45" y1="-307.74" x2="-1456.45" y2="-408.02" gradientTransform="translate(932.5 -1042.95) rotate(-90)" xlink:href="#linear-gradient"/>
        <clipPath id="clip-path" clipPathUnits="objectBoundingBox">
            <use xlink:href="#filterPath" fill="none"/>
        </clipPath>
        <path id="filterPath" d="M1,1H0V0H1Z"/>
    </defs>
    <svg viewBox="0 0 1 1" id="preview" preserveAspectRatio="none">
        <g class="mask_preview">
            <use xlink:href="#filterPath" fill="darkgrey"/>
        </g>
    </svg>
    <image xlink:href="" clip-path="url(#clip-path)" preserveAspectRatio="xMidYMin slice" x="19" y="21"/>
    <g>
        <path d="M776.27,3H63.73A63.82,63.82,0,0,0,0,66.78V348.22A63.82,63.82,0,0,0,63.73,412H776.27A63.82,63.82,0,0,0,840,348.22V66.78A63.82,63.82,0,0,0,776.27,3Zm48.44,105.87a4.82,4.82,0,0,1-4.94,5.26h-3.51c-14,0-21.69,12.59-21.69,19.29V281.84c0,6.7,7.68,19.29,21.69,19.29h3.51a4.82,4.82,0,0,1,4.94,5.27v40.32c0,31.56-15.3,50.21-52.58,50.21H74.88c-24.38,0-59.59-1.43-59.59-55.95V74c0-54.52,35.21-55.95,59.59-55.95H772.13c37.28,0,52.58,18.65,52.58,50.22Z"/>
        <path d="M776.27,3H63.73A63.82,63.82,0,0,0,0,66.78V348.22A63.82,63.82,0,0,0,63.73,412H776.27A63.82,63.82,0,0,0,840,348.22V66.78A63.82,63.82,0,0,0,776.27,3Zm48.44,105.87a4.82,4.82,0,0,1-4.94,5.26h-3.51c-14,0-21.69,12.59-21.69,19.29V281.84c0,6.7,7.68,19.29,21.69,19.29h3.51a4.82,4.82,0,0,1,4.94,5.27v40.32c0,31.56-15.3,50.21-52.58,50.21H74.88c-24.38,0-59.59-1.43-59.59-55.95V74c0-54.52,35.21-55.95,59.59-55.95H772.13c37.28,0,52.58,18.65,52.58,50.22Z" fill="#707070"/>
        <path d="M776.27,4.28H63.73A62.55,62.55,0,0,0,1.28,66.78V348.22a62.55,62.55,0,0,0,62.45,62.5H776.27a62.55,62.55,0,0,0,62.46-62.5V66.78A62.55,62.55,0,0,0,776.27,4.28Zm48.44,104.6a4.82,4.82,0,0,1-4.94,5.26h-3.51c-14,0-21.69,12.59-21.69,19.29V281.84c0,6.7,7.68,19.29,21.69,19.29h3.51a4.82,4.82,0,0,1,4.94,5.27v40.32c0,31.56-15.3,50.21-52.58,50.21H74.88c-24.38,0-59.59-1.43-59.59-55.95V74c0-54.52,35.21-55.95,59.59-55.95H772.13c37.28,0,52.58,18.65,52.58,50.22Z" fill="#969696"/>
        <path d="M776.27,5.56H63.73A61.27,61.27,0,0,0,2.55,66.78V348.22a61.27,61.27,0,0,0,61.18,61.22H776.27a61.27,61.27,0,0,0,61.18-61.22V66.78A61.27,61.27,0,0,0,776.27,5.56Zm48.44,103.32a4.82,4.82,0,0,1-4.94,5.26h-3.51c-14,0-21.69,12.59-21.69,19.29V281.84c0,6.7,7.68,19.29,21.69,19.29h3.51a4.82,4.82,0,0,1,4.94,5.27v40.32c0,31.56-15.3,50.21-52.58,50.21H74.88c-24.38,0-59.59-1.43-59.59-55.95V74c0-54.52,35.21-55.95,59.59-55.95H772.13c37.28,0,52.58,18.65,52.58,50.22Z" fill="#c1c1c1"/>
        <path d="M776.27,6.84H63.73A60,60,0,0,0,3.82,66.78V348.22a60,60,0,0,0,59.91,59.95H776.27a60,60,0,0,0,59.91-59.95V66.78A60,60,0,0,0,776.27,6.84Zm48.44,102a4.82,4.82,0,0,1-4.94,5.26h-3.51c-14,0-21.69,12.59-21.69,19.29V281.84c0,6.7,7.68,19.29,21.69,19.29h3.51a4.82,4.82,0,0,1,4.94,5.27v40.32c0,31.56-15.3,50.21-52.58,50.21H74.88c-24.38,0-59.59-1.43-59.59-55.95V74c0-54.52,35.21-55.95,59.59-55.95H772.13c37.28,0,52.58,18.65,52.58,50.22Z" fill="#969696"/>
        <path d="M776.27,8.11H63.73A58.72,58.72,0,0,0,5.1,66.78V348.22a58.72,58.72,0,0,0,58.63,58.67H776.27a58.72,58.72,0,0,0,58.63-58.67V66.78A58.72,58.72,0,0,0,776.27,8.11Zm48.44,100.77a4.82,4.82,0,0,1-4.94,5.26h-3.51c-14,0-21.69,12.59-21.69,19.29V281.84c0,6.7,7.68,19.29,21.69,19.29h3.51a4.82,4.82,0,0,1,4.94,5.27v40.32c0,31.56-15.3,50.21-52.58,50.21H74.88c-24.38,0-59.59-1.43-59.59-55.95V74c0-54.52,35.21-55.95,59.59-55.95H772.13c37.28,0,52.58,18.65,52.58,50.22Z" fill="#707070"/>
        <path d="M706,3V1.28A1.28,1.28,0,0,0,704.71,0H676a1.27,1.27,0,0,0-1.27,1.28V3Z" fill="url(#linear-gradient)"/>
        <path d="M646.5,3V1.28A1.27,1.27,0,0,0,645.23,0h-60.9a1.28,1.28,0,0,0-1.28,1.28V3Z" fill="url(#linear-gradient-2)"/>
        <path d="M566.36,3V1.28A1.28,1.28,0,0,0,565.08,0h-60.9a1.27,1.27,0,0,0-1.27,1.28V3Z" fill="url(#linear-gradient-3)"/>
        <path d="M524.48,412v1.74a1.27,1.27,0,0,0,1.27,1.27h97.74a1.27,1.27,0,0,0,1.28-1.27V412Z" fill="url(#linear-gradient-4)"/>
        <path class="overlay" d="M776.27,3H706V1.28A1.28,1.28,0,0,0,704.71,0H676a1.27,1.27,0,0,0-1.27,1.28V3H646.5V1.28A1.27,1.27,0,0,0,645.23,0h-60.9a1.28,1.28,0,0,0-1.28,1.28V3H566.36V1.28A1.28,1.28,0,0,0,565.08,0h-60.9a1.27,1.27,0,0,0-1.27,1.28V3H63.73A63.82,63.82,0,0,0,0,66.78V348.22A63.82,63.82,0,0,0,63.73,412H524.48v1.74a1.27,1.27,0,0,0,1.27,1.27h97.74a1.27,1.27,0,0,0,1.28-1.27V412h151.5A63.82,63.82,0,0,0,840,348.22V66.78A63.82,63.82,0,0,0,776.27,3Zm48.44,105.87a4.82,4.82,0,0,1-4.94,5.26h-3.51c-14,0-21.69,12.59-21.69,19.29V281.84c0,6.7,7.68,19.29,21.69,19.29h3.51a4.82,4.82,0,0,1,4.94,5.27v40.32c0,31.56-15.3,50.21-52.58,50.21H74.88c-24.38,0-59.59-1.43-59.59-55.95V74c0-54.52,35.21-55.95,59.59-55.95H772.13c37.28,0,52.58,18.65,52.58,50.22Z" fill="#F6F6F6"/>
        <path d="M833.63,348.22V66.78A57.37,57.37,0,0,0,776.27,9.39H63.73A57.38,57.38,0,0,0,6.37,66.78V348.22a57.39,57.39,0,0,0,57.36,57.4H776.27A57.38,57.38,0,0,0,833.63,348.22ZM20.18,336.8V78.36c0-54.52,35.22-55.95,59.59-55.95l687,.32c37.29,0,52.58,18.65,52.58,50.22v29.33a4.82,4.82,0,0,1-4.94,5.26h-3.51c-14,0-21.69,12.6-21.69,19.29v161.5c0,6.7,7.68,19.29,21.69,19.29h3.51a4.82,4.82,0,0,1,4.94,5.26v29.34c0,31.56-15.29,50.22-52.58,50.22l-687,.31C55.4,392.75,20.18,391.32,20.18,336.8Z"/>
        <path d="M808.3,255.89a6.85,6.85,0,1,1,6.84-6.85A6.84,6.84,0,0,1,808.3,255.89Z" fill="#444"/>
        <path d="M808.05,230.12a3.28,3.28,0,0,1-3.28-3.29v-38a3.28,3.28,0,0,1,3.28-3.28h0a3.28,3.28,0,0,1,3.29,3.28v38a3.29,3.29,0,0,1-3.29,3.29Z" fill="#444"/>
        <g>
            <rect x="746.95" y="405.62" width="9.14" height="6.38" fill="#fff" opacity="0.3"/>
            <rect x="833.63" y="322.29" width="6.37" height="9.14" fill="#fff" opacity="0.3"/>
            <rect x="747.08" y="3.01" width="8.68" height="6.38" fill="#fff" opacity="0.3"/>
            <rect x="83.77" y="3.01" width="8.71" height="6.38" fill="#fff" opacity="0.3"/>
            <rect y="83.79" width="6.37" height="9.35" fill="#fff" opacity="0.3"/>
            <rect x="83.28" y="405.62" width="9.35" height="6.38" fill="#fff" opacity="0.3"/>
        </g>
        <circle cx="808.3" cy="249.04" r="3.54" fill="#1f538b"/>
    </g>
</svg>
