<svg xmlns="http://www.w3.org/2000/svg" xmlns:xlink="http://www.w3.org/1999/xlink" viewBox="0 0 415 840" width="415" height="840" data-forced-size="true">
    <style>
        image { 
            width: calc(100% - 42px);
            height: calc(100% - 38px);
        }
        .mask_preview { clip-path: polygon(9% 2%, 93% 2%, 98% 8%, 98% 94%, 89% 99%, 11% 99%, 4% 95%, 4% 7%); }
        .overlay { mix-blend-mode: overlay; }
    </style>
    <defs>
        <linearGradient id="linear-gradient" x1="1.5" y1="165.29" x2="1.5" y2="134.01" gradientUnits="userSpaceOnUse">
            <stop offset="0" stop-color="#2b2b2b"/>
            <stop offset="0.03" stop-color="#858585"/>
            <stop offset="0.05" stop-color="#bfbfbf"/>
            <stop offset="0.15" stop-color="#8c8c8c"/>
            <stop offset="0.85" stop-color="#8c8c8c"/>
            <stop offset="0.95" stop-color="#bfbfbf"/>
            <stop offset="0.97" stop-color="#858585"/>
            <stop offset="1" stop-color="#2b2b2b"/>
        </linearGradient>
        <linearGradient id="linear-gradient-2" x1="1.5" y1="256.95" x2="1.5" y2="193.5" xlink:href="#linear-gradient"/>
        <linearGradient id="linear-gradient-3" x1="1.5" y1="337.09" x2="1.5" y2="273.64" xlink:href="#linear-gradient"/>
        <linearGradient id="linear-gradient-4" x1="354.08" y1="493.68" x2="354.08" y2="393.39" gradientTransform="translate(767.57 708.91) rotate(180)" xlink:href="#linear-gradient"/>
        <clipPath id="clip-path" clipPathUnits="objectBoundingBox">
            <use xlink:href="#filterPath" fill="none"/>
        </clipPath>
        <path id="filterPath" d="M1,1H0V0H1Z"/>
    </defs>
    <svg viewBox="0 0 1 1" id="preview" preserveAspectRatio="none">
        <g class="mask_preview">
            <use xlink:href="#filterPath" fill="darkgrey"/>
        </g>
    </svg>
    <image xlink:href="" clip-path="url(#clip-path)" preserveAspectRatio="xMidYMin slice" x="21" y="19"/>
    <g>
        <path d="M348.22,0H66.78A63.82,63.82,0,0,0,3,63.73V776.27A63.82,63.82,0,0,0,66.78,840H348.22A63.82,63.82,0,0,0,412,776.27V63.73A63.82,63.82,0,0,0,348.22,0Zm48.33,766c0,24.37-1.44,59.59-56,59.59H73.64c-54.53,0-56-35.22-56-59.59V68.77c0-37.28,18.65-52.57,50.22-52.57h40.59a4.81,4.81,0,0,1,5.26,4.93v3.51c0,14,12.6,21.69,19.29,21.69H281.46c6.69,0,19.29-7.67,19.29-21.69V21.13A4.81,4.81,0,0,1,306,16.2h40.32c31.56,0,50.22,15.29,50.22,52.57Z"/>
        <path d="M348.22,0H66.78A63.82,63.82,0,0,0,3,63.73V776.27A63.82,63.82,0,0,0,66.78,840H348.22A63.82,63.82,0,0,0,412,776.27V63.73A63.82,63.82,0,0,0,348.22,0Zm48.33,766c0,24.37-1.44,59.59-56,59.59H73.64c-54.53,0-56-35.22-56-59.59V68.77c0-37.28,18.65-52.57,50.22-52.57h40.59a4.81,4.81,0,0,1,5.26,4.93v3.51c0,14,12.6,21.69,19.29,21.69H281.46c6.69,0,19.29-7.67,19.29-21.69V21.13A4.81,4.81,0,0,1,306,16.2h40.32c31.56,0,50.22,15.29,50.22,52.57Z" fill="#707070"/>
        <path d="M348.22,1.27H66.78A62.55,62.55,0,0,0,4.28,63.73V776.27a62.55,62.55,0,0,0,62.5,62.45H348.22a62.55,62.55,0,0,0,62.5-62.45V63.73A62.55,62.55,0,0,0,348.22,1.27ZM396.55,766c0,24.37-1.44,59.59-56,59.59H73.64c-54.53,0-56-35.22-56-59.59V68.77c0-37.28,18.65-52.57,50.22-52.57h40.59a4.81,4.81,0,0,1,5.26,4.93v3.51c0,14,12.6,21.69,19.29,21.69H281.46c6.69,0,19.29-7.67,19.29-21.69V21.13A4.81,4.81,0,0,1,306,16.2h40.32c31.56,0,50.22,15.29,50.22,52.57Z" fill="#969696"/>
        <path d="M348.22,2.55H66.78A61.27,61.27,0,0,0,5.56,63.73V776.27a61.27,61.27,0,0,0,61.22,61.18H348.22a61.27,61.27,0,0,0,61.22-61.18V63.73A61.27,61.27,0,0,0,348.22,2.55ZM396.55,766c0,24.37-1.44,59.59-56,59.59H73.64c-54.53,0-56-35.22-56-59.59V68.77c0-37.28,18.65-52.57,50.22-52.57h40.59a4.81,4.81,0,0,1,5.26,4.93v3.51c0,14,12.6,21.69,19.29,21.69H281.46c6.69,0,19.29-7.67,19.29-21.69V21.13A4.81,4.81,0,0,1,306,16.2h40.32c31.56,0,50.22,15.29,50.22,52.57Z" fill="#c1c1c1"/>
        <path d="M348.22,3.82H66.78A60,60,0,0,0,6.84,63.73V776.27a60,60,0,0,0,59.94,59.91H348.22a60,60,0,0,0,59.95-59.91V63.73A60,60,0,0,0,348.22,3.82ZM396.55,766c0,24.37-1.44,59.59-56,59.59H73.64c-54.53,0-56-35.22-56-59.59V68.77c0-37.28,18.65-52.57,50.22-52.57h40.59a4.81,4.81,0,0,1,5.26,4.93v3.51c0,14,12.6,21.69,19.29,21.69H281.46c6.69,0,19.29-7.67,19.29-21.69V21.13A4.81,4.81,0,0,1,306,16.2h40.32c31.56,0,50.22,15.29,50.22,52.57Z" fill="#969696"/>
        <path d="M348.22,5.1H66.78A58.72,58.72,0,0,0,8.11,63.73V776.27A58.72,58.72,0,0,0,66.78,834.9H348.22a58.72,58.72,0,0,0,58.67-58.63V63.73A58.72,58.72,0,0,0,348.22,5.1ZM396.55,766c0,24.37-1.44,59.59-56,59.59H73.64c-54.53,0-56-35.22-56-59.59V68.77c0-37.28,18.65-52.57,50.22-52.57h40.59a4.81,4.81,0,0,1,5.26,4.93v3.51c0,14,12.6,21.69,19.29,21.69H281.46c6.69,0,19.29-7.67,19.29-21.69V21.13A4.81,4.81,0,0,1,306,16.2h40.32c31.56,0,50.22,15.29,50.22,52.57Z" fill="#707070"/>
        <path d="M3,134H1.28A1.28,1.28,0,0,0,0,135.29V164a1.27,1.27,0,0,0,1.28,1.27H3Z" fill="url(#linear-gradient)"/>
        <path d="M3,193.5H1.28A1.27,1.27,0,0,0,0,194.77v60.9A1.28,1.28,0,0,0,1.28,257H3Z" fill="url(#linear-gradient-2)"/>
        <path d="M3,273.64H1.28A1.28,1.28,0,0,0,0,274.92v60.9a1.27,1.27,0,0,0,1.28,1.27H3Z" fill="url(#linear-gradient-3)"/>
        <path d="M412,315.52h1.74a1.27,1.27,0,0,0,1.27-1.27V216.51a1.27,1.27,0,0,0-1.27-1.28H412Z" fill="url(#linear-gradient-4)"/>
        <path class="overlay" d="M413.73,215.23H412V63.73A63.82,63.82,0,0,0,348.22,0H66.78A63.82,63.82,0,0,0,3,63.73V134H1.28A1.28,1.28,0,0,0,0,135.29V164a1.27,1.27,0,0,0,1.28,1.27H3V193.5H1.28A1.27,1.27,0,0,0,0,194.77v60.9A1.28,1.28,0,0,0,1.28,257H3v16.69H1.28A1.28,1.28,0,0,0,0,274.92v60.9a1.27,1.27,0,0,0,1.28,1.27H3V776.27A63.82,63.82,0,0,0,66.78,840H348.22A63.82,63.82,0,0,0,412,776.27V315.52h1.74a1.27,1.27,0,0,0,1.27-1.27V216.51A1.27,1.27,0,0,0,413.73,215.23ZM340.59,825.62H73.64c-54.53,0-56-35.22-56-59.59V68.77c0-37.28,18.65-52.57,50.22-52.57h40.59a4.81,4.81,0,0,1,5.26,4.93v3.51c0,14,12.6,21.69,19.29,21.69H281.46c6.69,0,19.29-7.67,19.29-21.69V21.13A4.81,4.81,0,0,1,306,16.2h40.32c31.56,0,50.22,15.29,50.22,52.57V766C396.55,790.4,395.11,825.62,340.59,825.62Z" fill="#F6F6F6"/>
        <path d="M348.22,6.37H66.78A57.37,57.37,0,0,0,9.39,63.73V776.27a57.38,57.38,0,0,0,57.39,57.36H348.22a57.39,57.39,0,0,0,57.4-57.36V63.73A57.38,57.38,0,0,0,348.22,6.37ZM336.8,819.82H78.36c-54.52,0-55.95-35.22-55.95-59.59l.32-687C22.73,35.9,41.38,20.61,73,20.61h29.33a4.82,4.82,0,0,1,5.26,4.94v3.51c0,14,12.6,21.69,19.29,21.69h161.5c6.7,0,19.29-7.68,19.29-21.69V25.55a4.82,4.82,0,0,1,5.26-4.94h29.34c31.56,0,50.22,15.29,50.22,52.58l.31,687C392.75,784.6,391.32,819.82,336.8,819.82Z"/>
        <path d="M255.89,31.7A6.85,6.85,0,1,1,249,24.86,6.84,6.84,0,0,1,255.89,31.7Z" fill="#444"/>
        <path d="M230.12,32a3.28,3.28,0,0,1-3.29,3.28h-38A3.28,3.28,0,0,1,185.57,32h0a3.28,3.28,0,0,1,3.28-3.29h38A3.29,3.29,0,0,1,230.12,32Z" fill="#444"/>
        <g>
            <rect x="405.62" y="83.91" width="6.38" height="9.14" fill="#FFFFFB" opacity="0.3"/>
            <rect x="322.29" width="9.14" height="6.37" fill="#FFFFFB" opacity="0.3"/>
            <rect x="3.01" y="84.24" width="6.38" height="8.68" fill="#FFFFFB" opacity="0.3"/>
            <rect x="3.01" y="747.52" width="6.38" height="8.71" fill="#FFFFFB" opacity="0.3"/>
            <rect x="83.79" y="833.63" width="9.35" height="6.37" fill="#FFFFFB" opacity="0.3"/>
            <rect x="405.62" y="747.37" width="6.38" height="9.35" fill="#FFFFFB" opacity="0.3"/>
        </g>
        <circle cx="249.04" cy="31.7" r="3.54" fill="#1f538b"/>
    </g>
</svg>
